<svg width="2200" height="600" viewBox="0 0 2200 600" fill="none" xmlns="http://www.w3.org/2000/svg">
<path fill-rule="evenodd" clip-rule="evenodd" d="M731.395 356.195C730.892 361.513 730.64 367.075 730.64 372.88C730.64 394.96 734.72 413.44 742.88 428.32C751.28 443.2 762.8 454.36 777.44 461.8C792.32 469 809.24 472.6 828.2 472.6C842.6 472.6 854.96 471.52 865.28 469.36C875.6 467.2 885.56 463.84 895.16 459.28V422.92C884.6 427.72 874.28 431.44 864.2 434.08C854.36 436.48 843.08 437.68 830.36 437.68C813.8 437.68 800.84 432.88 791.48 423.28C782.12 413.44 777.2 399.64 776.72 381.88H905.6V358.84C905.6 340.12 902.12 324.28 895.16 311.32C888.2 298.12 878.36 288.04 865.64 281.08C853.16 273.88 838.16 270.28 820.64 270.28C802.64 270.28 786.92 274.24 773.48 282.16C772.645 282.637 771.821 283.129 771.009 283.636L787.481 300.109L731.395 356.195ZM1015.78 472.6C993.22 472.6 974.86 464.2 960.7 447.4C946.78 430.36 939.82 405.16 939.82 371.8C939.82 338.44 945.5 323.92 958 303.76C972.16 286.48 992.46 271.5 1015.5 271.5C1025.1 271.5 1034.86 271.6 1042.06 274.24C1049.5 276.64 1056.72 279.68 1062 284C1067.28 288.32 1069 290 1073.38 295V294.5V283.24V263.8V195.4H1118.74V469L1075.18 468.64V443.44H1073.38C1069.78 448.72 1065.34 453.64 1060.06 458.2C1054.78 462.52 1048.54 466 1041.34 468.64C1034.14 471.28 1025.62 472.6 1015.78 472.6ZM1029.46 435.88C1046.26 435.88 1058.14 431.08 1065.1 421.48C1072.06 411.88 1075.54 397.36 1075.54 377.92V372.16C1075.54 351.04 1072.18 334.96 1065.46 323.92C1058.98 312.88 1046.74 307.36 1028.74 307.36C1015.06 307.36 999.94 312.4 992.5 323.92C985.06 335.2 983 351.52 983 372.16C983 392.8 988.06 408.7 995.5 419.5C1002.94 430.3 1015.3 435.88 1029.46 435.88ZM820.64 303.76C808.64 303.76 798.8 307.72 791.12 315.64C783.68 323.32 779.24 334.84 777.8 350.2H861.68C861.68 341.08 860.12 333.04 857 326.08C854.12 319.12 849.68 313.72 843.68 309.88C837.68 305.8 830 303.76 820.64 303.76ZM1222.05 469V273.88H1176.69V469H1222.05ZM1217.01 204.04C1211.97 200.44 1206.09 198.64 1199.37 198.64C1192.41 198.64 1186.41 200.44 1181.37 204.04C1176.57 207.4 1174.17 213.52 1174.17 222.4C1174.17 231.04 1176.57 237.28 1181.37 241.12C1186.41 244.72 1192.41 246.52 1199.37 246.52C1206.09 246.52 1211.97 244.72 1217.01 241.12C1222.05 237.28 1224.57 231.04 1224.57 222.4C1224.57 213.52 1222.05 207.4 1217.01 204.04ZM1357.81 270.28C1383.01 270.28 1402.09 275.8 1415.05 286.84C1428.25 297.64 1434.85 314.68 1434.85 337.96V469H1402.81L1393.81 442H1392.37C1386.85 448.96 1381.09 454.84 1375.09 459.64C1369.33 464.2 1362.61 467.44 1354.93 469.36C1347.49 471.52 1338.37 472.6 1327.57 472.6C1316.05 472.6 1305.61 470.44 1296.25 466.12C1287.13 461.8 1279.93 455.2 1274.65 446.32C1269.37 437.2 1266.73 425.8 1266.73 412.12C1266.73 391.96 1274.05 376.84 1288.69 366.76C1303.57 356.44 1326.01 350.8 1356.01 349.84L1389.85 348.76V339.04C1389.85 326.56 1386.85 317.68 1380.85 312.4C1374.85 307.12 1366.45 304.48 1355.65 304.48C1345.81 304.48 1336.33 305.92 1327.21 308.8C1318.09 311.68 1309.21 315.04 1300.57 318.88L1286.17 287.2C1295.77 282.16 1306.69 278.08 1318.93 274.96C1331.41 271.84 1344.37 270.28 1357.81 270.28ZM1366.09 377.56C1346.17 378.28 1331.68 379.76 1324 386C1316.32 392 1310.5 401.8 1310.5 412.12C1310.5 421.24 1315.93 428.2 1321.45 432.28C1326.97 436.36 1334.05 438.4 1342.69 438.4C1355.89 438.4 1367.05 434.68 1376.17 427.24C1385.29 419.56 1389.85 408.28 1389.85 393.4V376.84L1366.09 377.56ZM1583.85 434.8C1578.57 435.76 1573.05 436.24 1567.29 436.24C1559.61 436.24 1553.37 434.08 1548.57 429.76C1543.77 425.2 1541.37 418.36 1541.37 409.24V308.08H1596.81V273.88H1541.37V231.04H1512.93L1496.1 263L1469.73 288.28V308.08H1496.01V409.6C1496.01 425.92 1498.65 438.64 1503.93 447.76C1509.45 456.88 1516.65 463.36 1525.53 467.2C1534.65 470.8 1544.73 472.6 1555.77 472.6C1564.17 472.6 1572.21 471.76 1579.89 470.08C1587.57 468.64 1593.81 466.84 1598.61 464.68V430.84C1594.05 432.28 1589.13 433.6 1583.85 434.8ZM1812.18 371.08C1812.18 387.4 1810.02 401.8 1805.7 414.28C1801.38 426.76 1795.14 437.44 1786.98 446.32C1779.06 454.96 1769.22 461.56 1757.46 466.12C1745.94 470.44 1733.1 472.6 1718.94 472.6C1705.5 472.6 1693.14 470.44 1681.86 466.12C1670.58 461.56 1660.74 454.96 1652.34 446.32C1644.18 437.44 1637.82 426.76 1633.26 414.28C1628.7 401.8 1626.42 387.4 1626.42 371.08C1626.42 349.48 1630.14 331.24 1637.58 316.36C1645.02 301.24 1655.7 289.84 1669.62 282.16C1683.78 274.24 1700.46 270.28 1719.66 270.28C1737.9 270.28 1753.86 274.24 1767.54 282.16C1781.46 289.84 1792.38 301.24 1800.3 316.36C1808.22 331.24 1812.18 349.48 1812.18 371.08ZM1672.86 371.08C1672.86 384.76 1674.42 396.52 1677.54 406.36C1680.9 415.96 1685.94 423.28 1692.66 428.32C1699.62 433.36 1708.5 435.88 1719.3 435.88C1730.34 435.88 1739.22 433.36 1745.94 428.32C1752.9 423.28 1757.94 415.96 1761.06 406.36C1764.18 396.52 1765.74 384.76 1765.74 371.08C1765.74 357.16 1764.06 345.52 1760.7 336.16C1757.58 326.56 1752.54 319.36 1745.58 314.56C1738.86 309.52 1730.1 307 1719.3 307C1702.98 307 1691.1 312.52 1683.66 323.56C1676.46 334.6 1672.86 350.44 1672.86 371.08ZM1961.93 274.452C1960.88 274.476 1959.9 274.5 1959 274.5C1958.23 274.5 1957.47 274.497 1956.71 274.494C1948.99 274.465 1942 274.439 1935 277.5C1927.56 280.86 1922.79 283.24 1917.03 289C1911.27 294.52 1906.47 300.76 1902.63 307.72H1901V273.88H1859.07V469H1904.43V367.84C1904.43 358.24 1905.87 349.96 1908.75 343C1911.87 336.04 1915.95 330.4 1920.99 326.08C1926.27 321.52 1932.15 318.16 1938.63 316C1945.35 313.6 1952.31 312.4 1959.51 312.4H1968.51H1977.06L1976.64 274.5C1973.99 274.42 1973.5 274.406 1969.44 274.5C1966.8 274.335 1964.22 274.397 1961.93 274.452Z" fill="white"/>
<rect x="166.451" y="300.052" width="335.928" height="335.928" transform="rotate(-45 166.451 300.052)" fill="url(#paint0_linear_25_110)"/>
<mask id="mask0_25_110" style="mask-type:alpha" maskUnits="userSpaceOnUse" x="166" y="62" width="476" height="476">
<rect x="166.451" y="300.052" width="335.928" height="335.928" transform="rotate(-45 166.451 300.052)" fill="url(#paint1_linear_25_110)"/>
</mask>
<g mask="url(#mask0_25_110)">
<circle cx="210.311" cy="230.978" r="210.329" fill="url(#paint2_radial_25_110)"/>
<ellipse cx="289.558" cy="61.519" rx="297.55" ry="272.131" fill="url(#paint3_radial_25_110)"/>
<ellipse cx="444.866" cy="485.662" rx="327.027" ry="265.157" fill="url(#paint4_radial_25_110)"/>
</g>
<mask id="mask1_25_110" style="mask-type:alpha" maskUnits="userSpaceOnUse" x="427" y="36" width="528" height="527">
<path d="M954.188 36H427.188V37.4307L427.514 37.1048L690.788 300.378L428.166 563H954.188V36Z" fill="#59FFFF"/>
</mask>
<g mask="url(#mask1_25_110)">
<rect x="410.616" y="300.109" width="251.634" height="251.634" transform="rotate(-45 410.616 300.109)" fill="url(#paint5_linear_25_110)"/>
</g>
<path d="M538.441 348.075L437.132 246.766L477.756 206.143L579.065 307.451L538.441 348.075Z" fill="white"/>
<path d="M337.698 344.969L476.524 206.143L517.148 246.766L378.322 385.593L337.698 344.969Z" fill="white"/>
<path d="M109 460.041L362.899 206.143L403.523 246.766L149.624 500.665L109 460.041Z" fill="white"/>
<rect x="1988" y="212.148" width="71.9438" height="71.9438" transform="rotate(-45 1988 212.148)" fill="url(#paint6_linear_25_110)"/>
<mask id="mask2_25_110" style="mask-type:alpha" maskUnits="userSpaceOnUse" x="1988" y="161" width="102" height="103">
<rect x="1988" y="212.148" width="71.9438" height="71.9438" transform="rotate(-45 1988 212.148)" fill="url(#paint7_linear_25_110)"/>
</mask>
<g mask="url(#mask2_25_110)">
<circle cx="2058.5" cy="227.776" r="54.5" fill="url(#paint8_radial_25_110)"/>
</g>
<defs>
<linearGradient id="paint0_linear_25_110" x1="170.888" y1="361.872" x2="499.351" y2="566.985" gradientUnits="userSpaceOnUse">
<stop stop-color="#80CECE"/>
<stop offset="1" stop-color="#01ABA9"/>
</linearGradient>
<linearGradient id="paint1_linear_25_110" x1="170.888" y1="361.872" x2="499.351" y2="566.985" gradientUnits="userSpaceOnUse">
<stop stop-color="#80CECE"/>
<stop offset="1" stop-color="#01ABA9"/>
</linearGradient>
<radialGradient id="paint2_radial_25_110" cx="0" cy="0" r="1" gradientUnits="userSpaceOnUse" gradientTransform="translate(159.435 221.051) rotate(41.4173) scale(245.723)">
<stop stop-color="#67FFFF"/>
<stop offset="1" stop-color="#12C4C4" stop-opacity="0"/>
</radialGradient>
<radialGradient id="paint3_radial_25_110" cx="0" cy="0" r="1" gradientUnits="userSpaceOnUse" gradientTransform="translate(319.877 78.9302) rotate(117.945) scale(236.998 241.891)">
<stop stop-color="#67FFE4"/>
<stop offset="1" stop-color="#12C4C4" stop-opacity="0"/>
</radialGradient>
<radialGradient id="paint4_radial_25_110" cx="0" cy="0" r="1" gradientUnits="userSpaceOnUse" gradientTransform="translate(478.188 502.627) rotate(-144.523) scale(159.63 173.405)">
<stop stop-color="#00A469"/>
<stop offset="1" stop-color="#12C4C4" stop-opacity="0"/>
</radialGradient>
<linearGradient id="paint5_linear_25_110" x1="583.698" y1="523.89" x2="662.602" y2="523.89" gradientUnits="userSpaceOnUse">
<stop stop-color="#2DA3A3"/>
<stop offset="1" stop-color="#007675"/>
</linearGradient>
<linearGradient id="paint6_linear_25_110" x1="2007" y1="231.33" x2="2059.68" y2="296.738" gradientUnits="userSpaceOnUse">
<stop stop-color="#62EBEB"/>
<stop offset="1" stop-color="#007675"/>
</linearGradient>
<linearGradient id="paint7_linear_25_110" x1="1993.92" y1="251.483" x2="2066.75" y2="284.717" gradientUnits="userSpaceOnUse">
<stop stop-color="#62EBEB"/>
<stop offset="1" stop-color="#007675"/>
</linearGradient>
<radialGradient id="paint8_radial_25_110" cx="0" cy="0" r="1" gradientUnits="userSpaceOnUse" gradientTransform="translate(2072.68 241.961) rotate(148.496) scale(54.2899 66.4136)">
<stop stop-color="#00FF75"/>
<stop offset="1" stop-color="#00BFB4" stop-opacity="0"/>
</radialGradient>
</defs>
</svg>
