<svg width="2200" height="600" viewBox="0 0 2200 600" fill="none" xmlns="http://www.w3.org/2000/svg">
<g clip-path="url(#clip0_25_53)">
<path fill-rule="evenodd" clip-rule="evenodd" d="M731.395 355.919C730.892 361.237 730.64 366.799 730.64 372.604C730.64 394.684 734.72 413.164 742.88 428.044C751.28 442.924 762.8 454.084 777.44 461.524C792.32 468.724 809.24 472.324 828.2 472.324C842.6 472.324 854.96 471.244 865.28 469.084C875.6 466.924 885.56 463.564 895.16 459.004V422.644C884.6 427.444 874.28 431.164 864.2 433.804C854.36 436.204 843.08 437.404 830.36 437.404C813.8 437.404 800.84 432.604 791.48 423.004C782.12 413.164 777.2 399.364 776.72 381.604H905.6V358.564C905.6 339.844 902.12 324.004 895.16 311.044C888.2 297.844 878.36 287.764 865.64 280.804C853.16 273.604 838.16 270.004 820.64 270.004C802.64 270.004 786.92 273.964 773.48 281.884C772.645 282.361 771.821 282.853 771.009 283.36L787.481 299.833L731.395 355.919ZM1015.78 472.324C993.22 472.324 974.86 463.924 960.7 447.124C946.78 430.084 939.82 404.884 939.82 371.524C939.82 338.164 945.5 323.644 958 303.484C972.16 286.204 992.46 271.224 1015.5 271.224C1025.1 271.224 1034.86 271.324 1042.06 273.964C1049.5 276.364 1056.72 279.404 1062 283.724C1067.28 288.044 1069 289.724 1073.38 294.724V294.224V282.964V263.524V195.124H1118.74V468.724L1075.18 468.364V443.164H1073.38C1069.78 448.444 1065.34 453.364 1060.06 457.924C1054.78 462.244 1048.54 465.724 1041.34 468.364C1034.14 471.004 1025.62 472.324 1015.78 472.324ZM1029.46 435.604C1046.26 435.604 1058.14 430.804 1065.1 421.204C1072.06 411.604 1075.54 397.084 1075.54 377.644V371.884C1075.54 350.764 1072.18 334.684 1065.46 323.644C1058.98 312.604 1046.74 307.084 1028.74 307.084C1015.06 307.084 999.94 312.124 992.5 323.644C985.06 334.924 983 351.244 983 371.884C983 392.524 988.06 408.424 995.5 419.224C1002.94 430.024 1015.3 435.604 1029.46 435.604ZM820.64 303.484C808.64 303.484 798.8 307.444 791.12 315.364C783.68 323.044 779.24 334.564 777.8 349.924H861.68C861.68 340.804 860.12 332.764 857 325.804C854.12 318.844 849.68 313.444 843.68 309.604C837.68 305.524 830 303.484 820.64 303.484ZM1222.05 468.724V273.604H1176.69V468.724H1222.05ZM1217.01 203.764C1211.97 200.164 1206.09 198.364 1199.37 198.364C1192.41 198.364 1186.41 200.164 1181.37 203.764C1176.57 207.124 1174.17 213.244 1174.17 222.124C1174.17 230.764 1176.57 237.004 1181.37 240.844C1186.41 244.444 1192.41 246.244 1199.37 246.244C1206.09 246.244 1211.97 244.444 1217.01 240.844C1222.05 237.004 1224.57 230.764 1224.57 222.124C1224.57 213.244 1222.05 207.124 1217.01 203.764ZM1357.81 270.004C1383.01 270.004 1402.09 275.524 1415.05 286.564C1428.25 297.364 1434.85 314.404 1434.85 337.684V468.724H1402.81L1393.81 441.724H1392.37C1386.85 448.684 1381.09 454.564 1375.09 459.364C1369.33 463.924 1362.61 467.164 1354.93 469.084C1347.49 471.244 1338.37 472.324 1327.57 472.324C1316.05 472.324 1305.61 470.164 1296.25 465.844C1287.13 461.524 1279.93 454.924 1274.65 446.044C1269.37 436.924 1266.73 425.524 1266.73 411.844C1266.73 391.684 1274.05 376.564 1288.69 366.484C1303.57 356.164 1326.01 350.524 1356.01 349.564L1389.85 348.484V338.764C1389.85 326.284 1386.85 317.404 1380.85 312.124C1374.85 306.844 1366.45 304.204 1355.65 304.204C1345.81 304.204 1336.33 305.644 1327.21 308.524C1318.09 311.404 1309.21 314.764 1300.57 318.604L1286.17 286.924C1295.77 281.884 1306.69 277.804 1318.93 274.684C1331.41 271.564 1344.37 270.004 1357.81 270.004ZM1366.09 377.284C1346.17 378.004 1331.68 379.484 1324 385.724C1316.32 391.724 1310.5 401.524 1310.5 411.844C1310.5 420.964 1315.93 427.924 1321.45 432.004C1326.97 436.084 1334.05 438.124 1342.69 438.124C1355.89 438.124 1367.05 434.404 1376.17 426.964C1385.29 419.284 1389.85 408.004 1389.85 393.124V376.564L1366.09 377.284ZM1583.85 434.524C1578.57 435.484 1573.05 435.964 1567.29 435.964C1559.61 435.964 1553.37 433.804 1548.57 429.484C1543.77 424.924 1541.37 418.084 1541.37 408.964V307.804H1596.81V273.604H1541.37V230.764H1512.93L1496.1 262.724L1469.73 288.004V307.804H1496.01V409.324C1496.01 425.644 1498.65 438.364 1503.93 447.484C1509.45 456.604 1516.65 463.084 1525.53 466.924C1534.65 470.524 1544.73 472.324 1555.77 472.324C1564.17 472.324 1572.21 471.484 1579.89 469.804C1587.57 468.364 1593.81 466.564 1598.61 464.404V430.564C1594.05 432.004 1589.13 433.324 1583.85 434.524ZM1812.18 370.804C1812.18 387.124 1810.02 401.524 1805.7 414.004C1801.38 426.484 1795.14 437.164 1786.98 446.044C1779.06 454.684 1769.22 461.284 1757.46 465.844C1745.94 470.164 1733.1 472.324 1718.94 472.324C1705.5 472.324 1693.14 470.164 1681.86 465.844C1670.58 461.284 1660.74 454.684 1652.34 446.044C1644.18 437.164 1637.82 426.484 1633.26 414.004C1628.7 401.524 1626.42 387.124 1626.42 370.804C1626.42 349.204 1630.14 330.964 1637.58 316.084C1645.02 300.964 1655.7 289.564 1669.62 281.884C1683.78 273.964 1700.46 270.004 1719.66 270.004C1737.9 270.004 1753.86 273.964 1767.54 281.884C1781.46 289.564 1792.38 300.964 1800.3 316.084C1808.22 330.964 1812.18 349.204 1812.18 370.804ZM1672.86 370.804C1672.86 384.484 1674.42 396.244 1677.54 406.084C1680.9 415.684 1685.94 423.004 1692.66 428.044C1699.62 433.084 1708.5 435.604 1719.3 435.604C1730.34 435.604 1739.22 433.084 1745.94 428.044C1752.9 423.004 1757.94 415.684 1761.06 406.084C1764.18 396.244 1765.74 384.484 1765.74 370.804C1765.74 356.884 1764.06 345.244 1760.7 335.884C1757.58 326.284 1752.54 319.084 1745.58 314.284C1738.86 309.244 1730.1 306.724 1719.3 306.724C1702.98 306.724 1691.1 312.244 1683.66 323.284C1676.46 334.324 1672.86 350.164 1672.86 370.804ZM1961.93 274.176C1960.88 274.2 1959.9 274.224 1959 274.224C1958.23 274.224 1957.47 274.221 1956.71 274.218C1948.99 274.189 1942 274.163 1935 277.224C1927.56 280.584 1922.79 282.964 1917.03 288.724C1911.27 294.244 1906.47 300.484 1902.63 307.444H1901V273.604H1859.07V468.724H1904.43V367.564C1904.43 357.964 1905.87 349.684 1908.75 342.724C1911.87 335.764 1915.95 330.124 1920.99 325.804C1926.27 321.244 1932.15 317.884 1938.63 315.724C1945.35 313.324 1952.31 312.124 1959.51 312.124H1968.51H1977.06L1976.64 274.224C1973.99 274.144 1973.5 274.13 1969.44 274.224C1966.8 274.059 1964.22 274.121 1961.93 274.176Z" fill="black"/>
<path d="M1597.67 727.96L1028.58 66.8193M1625.79 703.952L1056.7 42.8112M1653.91 679.944L1084.83 18.8032M1682.03 655.936L1112.95 -5.20486M1710.15 631.928L1141.07 -29.2129M1738.27 607.92L1169.19 -53.221M1766.39 583.911L1197.31 -77.229M1794.52 559.903L1225.43 -101.237M1822.64 535.895L1253.55 -125.245M1850.76 511.887L1281.67 -149.253M1878.88 487.879L1309.8 -173.261M1611.73 715.956L1042.64 54.8153M1639.85 691.948L1070.77 30.8073M1667.97 667.94L1098.89 6.79916M1696.09 643.932L1127.01 -17.2089M1724.21 619.924L1155.13 -41.2169M1752.33 595.915L1183.25 -65.225M1780.45 571.907L1211.37 -89.2331M1808.58 547.899L1239.49 -113.241M1836.7 523.891L1267.61 -137.249M1864.82 499.883L1295.74 -161.257M1892.94 475.875L1323.86 -185.265M1904.71 461.225L1335.63 -199.915M1932.83 437.217L1363.75 -223.923M1960.95 413.209L1391.87 -247.932M1989.07 389.201L1419.99 -271.94M2017.19 365.193L1448.11 -295.948M2045.32 341.185L1476.23 -319.956M2073.44 317.177L1504.35 -343.964M2101.56 293.169L1532.47 -367.972M2129.68 269.161L1560.6 -391.98M2157.8 245.153L1588.72 -415.988M2185.92 221.145L1616.84 -439.996M1918.77 449.221L1349.69 -211.919M1946.89 425.213L1377.81 -235.928M1975.01 401.205L1405.93 -259.936M2003.13 377.197L1434.05 -283.944M2031.25 353.189L1462.17 -307.952M2059.38 329.181L1490.29 -331.96M2087.5 305.173L1518.41 -355.968M2115.62 281.165L1546.54 -379.976M2143.74 257.156L1574.66 -403.984M2171.86 233.148L1602.78 -427.992M2199.98 209.141L1630.9 -452M981.156 1259.5L412.073 598.362M1009.28 1235.49L440.194 574.354M1037.4 1211.49L468.315 550.346M1065.52 1187.48L496.436 526.338M1093.64 1163.47L524.558 502.33M1121.76 1139.46L552.679 478.321M1149.88 1115.45L580.8 454.313M1178 1091.45L608.921 430.305M1206.13 1067.44L637.042 406.297M1234.25 1043.43L665.164 382.289M1262.37 1019.42L693.285 358.281M995.216 1247.5L426.133 586.358M1023.34 1223.49L454.255 562.35M1051.46 1199.48L482.376 538.341M1079.58 1175.47L510.497 514.333M1107.7 1151.47L538.618 490.326M1135.82 1127.46L566.739 466.317M1163.94 1103.45L594.861 442.309M1192.06 1079.44L622.982 418.301M1220.19 1055.43L651.103 394.293M1248.31 1031.43L679.224 370.285M1276.43 1007.42L707.345 346.277M1288.2 992.767L719.115 331.627M1316.32 968.759L747.236 307.619M1344.44 944.751L775.358 283.611M1372.56 920.743L803.479 259.603M1400.68 896.735L831.6 235.595M1428.8 872.727L859.721 211.587M1456.93 848.719L887.842 187.579M1485.05 824.711L915.964 163.571M1513.17 800.703L944.085 139.563M1541.29 776.695L972.206 115.555M1569.41 752.687L1000.33 91.5464M1302.26 980.763L733.176 319.623M1330.38 956.755L761.297 295.615M1358.5 932.747L789.418 271.607M1386.62 908.739L817.539 247.599M1414.74 884.731L845.661 223.591M1442.86 860.723L873.782 199.583M1470.99 836.715L901.903 175.575M1499.11 812.707L930.024 151.567M1527.23 788.699L958.145 127.559M1555.35 764.691L986.267 103.55M1583.47 740.683L1014.39 79.5424" stroke="url(#paint0_linear_25_53)" stroke-opacity="0.2" stroke-width="15"/>
<rect x="166.451" y="299.776" width="335.928" height="335.928" transform="rotate(-45 166.451 299.776)" fill="url(#paint1_linear_25_53)"/>
<mask id="mask0_25_53" style="mask-type:alpha" maskUnits="userSpaceOnUse" x="166" y="62" width="476" height="476">
<rect x="166.451" y="299.776" width="335.928" height="335.928" transform="rotate(-45 166.451 299.776)" fill="url(#paint2_linear_25_53)"/>
</mask>
<g mask="url(#mask0_25_53)">
<circle cx="210.311" cy="230.702" r="210.329" fill="url(#paint3_radial_25_53)"/>
<ellipse cx="289.558" cy="61.2428" rx="297.55" ry="272.131" fill="url(#paint4_radial_25_53)"/>
<ellipse cx="444.866" cy="485.386" rx="327.027" ry="265.157" fill="url(#paint5_radial_25_53)"/>
</g>
<mask id="mask1_25_53" style="mask-type:alpha" maskUnits="userSpaceOnUse" x="427" y="35" width="528" height="528">
<path d="M954.188 35.7241H427.188V37.1548L427.514 36.8289L690.788 300.102L428.166 562.724H954.188V35.7241Z" fill="#59FFFF"/>
</mask>
<g mask="url(#mask1_25_53)">
<rect x="410.616" y="299.833" width="251.634" height="251.634" transform="rotate(-45 410.616 299.833)" fill="url(#paint6_linear_25_53)"/>
</g>
<rect x="109" y="459.765" width="359.067" height="57.4507" transform="rotate(-45 109 459.765)" fill="#222222"/>
<rect x="538.441" y="347.799" width="143.272" height="57.4507" transform="rotate(-135 538.441 347.799)" fill="#222222"/>
<rect x="337.698" y="344.693" width="196.33" height="57.4507" transform="rotate(-45 337.698 344.693)" fill="#222222"/>
<mask id="mask2_25_53" style="mask-type:alpha" maskUnits="userSpaceOnUse" x="337" y="205" width="243" height="181">
<path d="M538.441 347.799L437.132 246.491L477.756 205.867L579.065 307.176L538.441 347.799Z" fill="#222222"/>
<path d="M337.698 344.693L476.524 205.867L517.148 246.491L378.322 385.317L337.698 344.693Z" fill="#222222"/>
</mask>
<g mask="url(#mask2_25_53)">
<path d="M263.675 558.66L370.642 157.255M287.162 564.918L394.129 163.513M310.648 571.177L417.615 169.772M334.135 577.436L441.102 176.031M357.621 583.695L464.588 182.289M381.108 589.953L488.074 188.548M404.594 596.212L511.561 194.807M428.081 602.471L535.047 201.066M451.567 608.729L558.534 207.324M475.054 614.988L582.02 213.583M498.54 621.247L605.507 219.842M275.419 561.789L382.385 160.384M298.905 568.048L405.872 166.643M322.391 574.306L429.358 172.901M345.878 580.565L452.845 179.16M369.364 586.824L476.331 185.419M392.851 593.083L499.818 191.677M416.337 599.341L523.304 197.936M439.824 605.6L546.791 204.195M463.31 611.859L570.277 210.454M486.797 618.117L593.764 216.712M510.283 624.376L617.25 222.971" stroke="url(#paint7_linear_25_53)" stroke-opacity="0.1" stroke-width="5"/>
</g>
<mask id="mask3_25_53" style="mask-type:alpha" maskUnits="userSpaceOnUse" x="109" y="205" width="295" height="296">
<rect x="109" y="459.765" width="359.067" height="57.4507" transform="rotate(-45 109 459.765)" fill="#222222"/>
</mask>
<g mask="url(#mask3_25_53)">
<path d="M88.6538 552.424L195.621 151.019M112.14 558.683L219.107 157.278M135.627 564.942L242.594 163.537M159.113 571.201L266.08 169.795M182.6 577.459L289.567 176.054M206.086 583.718L313.053 182.313M229.573 589.977L336.539 188.571M253.059 596.235L360.026 194.83M276.546 602.494L383.512 201.089M300.032 608.753L406.999 207.348M323.519 615.011L430.485 213.606M100.397 555.554L207.364 154.149M123.884 561.812L230.85 160.407M147.37 568.071L254.337 166.666M170.856 574.33L277.823 172.925M194.343 580.589L301.31 179.183M217.829 586.847L324.796 185.442M241.316 593.106L348.283 191.701M264.802 599.365L371.769 197.96M288.289 605.623L395.256 204.218M311.775 611.882L418.742 210.477M335.262 618.141L442.229 216.736" stroke="url(#paint8_linear_25_53)" stroke-opacity="0.1" stroke-width="5"/>
</g>
<rect x="1988" y="211.872" width="71.9438" height="71.9438" transform="rotate(-45 1988 211.872)" fill="url(#paint9_linear_25_53)"/>
<mask id="mask4_25_53" style="mask-type:alpha" maskUnits="userSpaceOnUse" x="1988" y="161" width="102" height="102">
<rect x="1988" y="211.872" width="71.9438" height="71.9438" transform="rotate(-45 1988 211.872)" fill="url(#paint10_linear_25_53)"/>
</mask>
<g mask="url(#mask4_25_53)">
<circle cx="2058.5" cy="227.5" r="54.5" fill="url(#paint11_radial_25_53)"/>
</g>
</g>
<defs>
<linearGradient id="paint0_linear_25_53" x1="1540.5" y1="176.222" x2="944.795" y2="331.204" gradientUnits="userSpaceOnUse">
<stop stop-color="white" stop-opacity="0.9"/>
<stop offset="1" stop-color="white" stop-opacity="0"/>
</linearGradient>
<linearGradient id="paint1_linear_25_53" x1="170.888" y1="361.596" x2="499.351" y2="566.709" gradientUnits="userSpaceOnUse">
<stop stop-color="#80CECE"/>
<stop offset="1" stop-color="#01ABA9"/>
</linearGradient>
<linearGradient id="paint2_linear_25_53" x1="170.888" y1="361.596" x2="499.351" y2="566.709" gradientUnits="userSpaceOnUse">
<stop stop-color="#80CECE"/>
<stop offset="1" stop-color="#01ABA9"/>
</linearGradient>
<radialGradient id="paint3_radial_25_53" cx="0" cy="0" r="1" gradientUnits="userSpaceOnUse" gradientTransform="translate(159.435 220.775) rotate(41.4173) scale(245.723)">
<stop stop-color="#67FFFF"/>
<stop offset="1" stop-color="#12C4C4" stop-opacity="0"/>
</radialGradient>
<radialGradient id="paint4_radial_25_53" cx="0" cy="0" r="1" gradientUnits="userSpaceOnUse" gradientTransform="translate(319.877 78.654) rotate(117.945) scale(236.998 241.891)">
<stop stop-color="#67FFE4"/>
<stop offset="1" stop-color="#12C4C4" stop-opacity="0"/>
</radialGradient>
<radialGradient id="paint5_radial_25_53" cx="0" cy="0" r="1" gradientUnits="userSpaceOnUse" gradientTransform="translate(478.188 502.351) rotate(-144.523) scale(159.63 173.405)">
<stop stop-color="#00A469"/>
<stop offset="1" stop-color="#12C4C4" stop-opacity="0"/>
</radialGradient>
<linearGradient id="paint6_linear_25_53" x1="583.698" y1="523.614" x2="662.602" y2="523.614" gradientUnits="userSpaceOnUse">
<stop stop-color="#2DA3A3"/>
<stop offset="1" stop-color="#007675"/>
</linearGradient>
<linearGradient id="paint7_linear_25_53" x1="569.711" y1="408.602" x2="458.124" y2="251.717" gradientUnits="userSpaceOnUse">
<stop stop-color="white"/>
<stop offset="1" stop-color="white" stop-opacity="0"/>
</linearGradient>
<linearGradient id="paint8_linear_25_53" x1="336.596" y1="213.05" x2="177.501" y2="456.663" gradientUnits="userSpaceOnUse">
<stop stop-color="white"/>
<stop offset="1" stop-color="white" stop-opacity="0"/>
</linearGradient>
<linearGradient id="paint9_linear_25_53" x1="2007" y1="231.054" x2="2059.68" y2="296.462" gradientUnits="userSpaceOnUse">
<stop stop-color="#62EBEB"/>
<stop offset="1" stop-color="#007675"/>
</linearGradient>
<linearGradient id="paint10_linear_25_53" x1="1993.92" y1="251.207" x2="2066.75" y2="284.441" gradientUnits="userSpaceOnUse">
<stop stop-color="#62EBEB"/>
<stop offset="1" stop-color="#007675"/>
</linearGradient>
<radialGradient id="paint11_radial_25_53" cx="0" cy="0" r="1" gradientUnits="userSpaceOnUse" gradientTransform="translate(2072.68 241.685) rotate(148.496) scale(54.2899 66.4136)">
<stop stop-color="#00FF75"/>
<stop offset="1" stop-color="#00BFB4" stop-opacity="0"/>
</radialGradient>
<clipPath id="clip0_25_53">
<rect width="2200" height="600" fill="white"/>
</clipPath>
</defs>
</svg>
