<svg width="2200" height="800" viewBox="0 0 2200 800" fill="none" xmlns="http://www.w3.org/2000/svg">
<g clip-path="url(#clip0_25_53)">
<path fill-rule="evenodd" clip-rule="evenodd" d="M731.395 425.919C730.892 431.237 730.64 436.799 730.64 442.604C730.64 464.684 734.72 483.164 742.88 498.044C751.28 512.924 762.8 524.084 777.44 531.524C792.32 538.724 809.24 542.324 828.2 542.324C842.6 542.324 854.96 541.244 865.28 539.084C875.6 536.924 885.56 533.564 895.16 529.004V492.644C884.6 497.444 874.28 501.164 864.2 503.804C854.36 506.204 843.08 507.404 830.36 507.404C813.8 507.404 800.84 502.604 791.48 493.004C782.12 483.164 777.2 469.364 776.72 451.604H905.6V428.564C905.6 409.844 902.12 394.004 895.16 381.044C888.2 367.844 878.36 357.764 865.64 350.804C853.16 343.604 838.16 340.004 820.64 340.004C802.64 340.004 786.92 343.964 773.48 351.884C772.645 352.361 771.821 352.853 771.009 353.36L787.481 369.833L731.395 425.919ZM1015.78 542.324C993.22 542.324 974.86 533.924 960.7 517.124C946.78 500.084 939.82 474.884 939.82 441.524C939.82 408.164 945.5 393.644 958 373.484C972.16 356.204 992.46 341.224 1015.5 341.224C1025.1 341.224 1034.86 341.324 1042.06 343.964C1049.5 346.364 1056.72 349.404 1062 353.724C1067.28 358.044 1069 359.724 1073.38 364.724V364.224V352.964V333.524V265.124H1118.74V538.724L1075.18 538.364V513.164H1073.38C1069.78 518.444 1065.34 523.364 1060.06 527.924C1054.78 532.244 1048.54 535.724 1041.34 538.364C1034.14 541.004 1025.62 542.324 1015.78 542.324ZM1029.46 505.604C1046.26 505.604 1058.14 500.804 1065.1 491.204C1072.06 481.604 1075.54 467.084 1075.54 447.644V441.884C1075.54 420.764 1072.18 404.684 1065.46 393.644C1058.98 382.604 1046.74 377.084 1028.74 377.084C1015.06 377.084 999.94 382.124 992.5 393.644C985.06 404.924 983 421.244 983 441.884C983 462.524 988.06 478.424 995.5 489.224C1002.94 500.024 1015.3 505.604 1029.46 505.604ZM820.64 373.484C808.64 373.484 798.8 377.444 791.12 385.364C783.68 393.044 779.24 404.564 777.8 419.924H861.68C861.68 410.804 860.12 402.764 857 395.804C854.12 388.844 849.68 383.444 843.68 379.604C837.68 375.524 830 373.484 820.64 373.484ZM1222.05 538.724V343.604H1176.69V538.724H1222.05ZM1217.01 273.764C1211.97 270.164 1206.09 268.364 1199.37 268.364C1192.41 268.364 1186.41 270.164 1181.37 273.764C1176.57 277.124 1174.17 283.244 1174.17 292.124C1174.17 300.764 1176.57 307.004 1181.37 310.844C1186.41 314.444 1192.41 316.244 1199.37 316.244C1206.09 316.244 1211.97 314.444 1217.01 310.844C1222.05 307.004 1224.57 300.764 1224.57 292.124C1224.57 283.244 1222.05 277.124 1217.01 273.764ZM1357.81 340.004C1383.01 340.004 1402.09 345.524 1415.05 356.564C1428.25 367.364 1434.85 384.404 1434.85 407.684V538.724H1402.81L1393.81 511.724H1392.37C1386.85 518.684 1381.09 524.564 1375.09 529.364C1369.33 533.924 1362.61 537.164 1354.93 539.084C1347.49 541.244 1338.37 542.324 1327.57 542.324C1316.05 542.324 1305.61 540.164 1296.25 535.844C1287.13 531.524 1279.93 524.924 1274.65 516.044C1269.37 506.924 1266.73 495.524 1266.73 481.844C1266.73 461.684 1274.05 446.564 1288.69 436.484C1303.57 426.164 1326.01 420.524 1356.01 419.564L1389.85 418.484V408.764C1389.85 396.284 1386.85 387.404 1380.85 382.124C1374.85 376.844 1366.45 374.204 1355.65 374.204C1345.81 374.204 1336.33 375.644 1327.21 378.524C1318.09 381.404 1309.21 384.764 1300.57 388.604L1286.17 356.924C1295.77 351.884 1306.69 347.804 1318.93 344.684C1331.41 341.564 1344.37 340.004 1357.81 340.004ZM1366.09 447.284C1346.17 448.004 1331.68 449.484 1324 455.724C1316.32 461.724 1310.5 471.524 1310.5 481.844C1310.5 490.964 1315.93 497.924 1321.45 502.004C1326.97 506.084 1334.05 508.124 1342.69 508.124C1355.89 508.124 1367.05 504.404 1376.17 496.964C1385.29 489.284 1389.85 478.004 1389.85 463.124V446.564L1366.09 447.284ZM1583.85 504.524C1578.57 505.484 1573.05 505.964 1567.29 505.964C1559.61 505.964 1553.37 503.804 1548.57 499.484C1543.77 494.924 1541.37 488.084 1541.37 478.964V377.804H1596.81V343.604H1541.37V300.764H1512.93L1496.1 332.724L1469.73 358.004V377.804H1496.01V479.324C1496.01 495.644 1498.65 508.364 1503.93 517.484C1509.45 526.604 1516.65 533.084 1525.53 536.924C1534.65 540.524 1544.73 542.324 1555.77 542.324C1564.17 542.324 1572.21 541.484 1579.89 539.804C1587.57 538.364 1593.81 536.564 1598.61 534.404V500.564C1594.05 502.004 1589.13 503.324 1583.85 504.524ZM1812.18 440.804C1812.18 457.124 1810.02 471.524 1805.7 484.004C1801.38 496.484 1795.14 507.164 1786.98 516.044C1779.06 524.684 1769.22 531.284 1757.46 535.844C1745.94 540.164 1733.1 542.324 1718.94 542.324C1705.5 542.324 1693.14 540.164 1681.86 535.844C1670.58 531.284 1660.74 524.684 1652.34 516.044C1644.18 507.164 1637.82 496.484 1633.26 484.004C1628.7 471.524 1626.42 457.124 1626.42 440.804C1626.42 419.204 1630.14 400.964 1637.58 386.084C1645.02 370.964 1655.7 359.564 1669.62 351.884C1683.78 343.964 1700.46 340.004 1719.66 340.004C1737.9 340.004 1753.86 343.964 1767.54 351.884C1781.46 359.564 1792.38 370.964 1800.3 386.084C1808.22 400.964 1812.18 419.204 1812.18 440.804ZM1672.86 440.804C1672.86 454.484 1674.42 466.244 1677.54 476.084C1680.9 485.684 1685.94 493.004 1692.66 498.044C1699.62 503.084 1708.5 505.604 1719.3 505.604C1730.34 505.604 1739.22 503.084 1745.94 498.044C1752.9 493.004 1757.94 485.684 1761.06 476.084C1764.18 466.244 1765.74 454.484 1765.74 440.804C1765.74 426.884 1764.06 415.244 1760.7 405.884C1757.58 396.284 1752.54 389.084 1745.58 384.284C1738.86 379.244 1730.1 376.724 1719.3 376.724C1702.98 376.724 1691.1 382.244 1683.66 393.284C1676.46 404.324 1672.86 420.164 1672.86 440.804ZM1961.93 344.176C1960.88 344.201 1959.9 344.224 1959 344.224C1958.23 344.224 1957.47 344.221 1956.71 344.218C1948.99 344.19 1942 344.163 1935 347.224C1927.56 350.584 1922.79 352.964 1917.03 358.724C1911.27 364.244 1906.47 370.484 1902.63 377.444H1901V343.604H1859.07V538.724H1904.43V437.564C1904.43 427.964 1905.87 419.684 1908.75 412.724C1911.87 405.764 1915.95 400.124 1920.99 395.804C1926.27 391.244 1932.15 387.884 1938.63 385.724C1945.35 383.324 1952.31 382.124 1959.51 382.124H1968.51H1977.06L1976.64 344.224C1973.99 344.144 1973.5 344.13 1969.44 344.224C1966.8 344.059 1964.22 344.121 1961.93 344.176Z" fill="black"/>
<path d="M1597.67 797.96L1028.58 136.819M1625.79 773.952L1056.7 112.811M1653.91 749.944L1084.83 88.8032M1682.03 725.936L1112.95 64.7951M1710.15 701.928L1141.07 40.7871M1738.27 677.92L1169.19 16.779M1766.39 653.911L1197.31 -7.22897M1794.52 629.903L1225.43 -31.2371M1822.64 605.895L1253.55 -55.2451M1850.76 581.887L1281.67 -79.2532M1878.88 557.879L1309.8 -103.261M1611.73 785.956L1042.64 124.815M1639.85 761.948L1070.77 100.807M1667.97 737.94L1098.89 76.7992M1696.09 713.932L1127.01 52.7911M1724.21 689.924L1155.13 28.7831M1752.33 665.915L1183.25 4.77499M1780.45 641.907L1211.37 -19.2331M1808.58 617.899L1239.49 -43.2411M1836.7 593.891L1267.61 -67.2492M1864.82 569.883L1295.74 -91.2572M1892.94 545.875L1323.86 -115.265M1904.71 531.225L1335.63 -129.915M1932.83 507.217L1363.75 -153.923M1960.95 483.209L1391.87 -177.932M1989.07 459.201L1419.99 -201.94M2017.19 435.193L1448.11 -225.948M2045.32 411.185L1476.23 -249.956M2073.44 387.177L1504.35 -273.964M2101.56 363.169L1532.47 -297.972M2129.68 339.161L1560.6 -321.98M2157.8 315.153L1588.72 -345.988M2185.92 291.145L1616.84 -369.996M1918.77 519.221L1349.69 -141.919M1946.89 495.213L1377.81 -165.928M1975.01 471.205L1405.93 -189.936M2003.13 447.197L1434.05 -213.944M2031.25 423.189L1462.17 -237.952M2059.38 399.181L1490.29 -261.96M2087.5 375.173L1518.41 -285.968M2115.62 351.165L1546.54 -309.976M2143.74 327.156L1574.66 -333.984M2171.86 303.148L1602.78 -357.992M2199.98 279.141L1630.9 -382M981.156 1329.5L412.073 668.362M1009.28 1305.49L440.194 644.354M1037.4 1281.49L468.315 620.346M1065.52 1257.48L496.436 596.338M1093.64 1233.47L524.558 572.33M1121.76 1209.46L552.679 548.321M1149.88 1185.45L580.8 524.313M1178 1161.45L608.921 500.305M1206.13 1137.44L637.042 476.297M1234.25 1113.43L665.164 452.289M1262.37 1089.42L693.285 428.281M995.216 1317.5L426.133 656.358M1023.34 1293.49L454.255 632.35M1051.46 1269.48L482.376 608.341M1079.58 1245.47L510.497 584.333M1107.7 1221.47L538.618 560.326M1135.82 1197.46L566.739 536.317M1163.94 1173.45L594.861 512.309M1192.06 1149.44L622.982 488.301M1220.19 1125.43L651.103 464.293M1248.31 1101.43L679.224 440.285M1276.43 1077.42L707.345 416.277M1288.2 1062.77L719.115 401.627M1316.32 1038.76L747.236 377.619M1344.44 1014.75L775.358 353.611M1372.56 990.743L803.479 329.603M1400.68 966.735L831.6 305.595M1428.8 942.727L859.721 281.587M1456.93 918.719L887.842 257.579M1485.05 894.711L915.964 233.571M1513.17 870.703L944.085 209.563M1541.29 846.695L972.206 185.555M1569.41 822.687L1000.33 161.546M1302.26 1050.76L733.176 389.623M1330.38 1026.76L761.297 365.615M1358.5 1002.75L789.418 341.607M1386.62 978.739L817.539 317.599M1414.74 954.731L845.661 293.591M1442.86 930.723L873.782 269.583M1470.99 906.715L901.903 245.575M1499.11 882.707L930.024 221.567M1527.23 858.699L958.145 197.559M1555.35 834.691L986.267 173.55M1583.47 810.683L1014.39 149.542" stroke="url(#paint0_linear_25_53)" stroke-opacity="0.2" stroke-width="15"/>
<rect x="166.451" y="369.777" width="335.928" height="335.928" transform="rotate(-45 166.451 369.777)" fill="url(#paint1_linear_25_53)"/>
<mask id="mask0_25_53" style="mask-type:alpha" maskUnits="userSpaceOnUse" x="166" y="132" width="476" height="476">
<rect x="166.451" y="369.777" width="335.928" height="335.928" transform="rotate(-45 166.451 369.777)" fill="url(#paint2_linear_25_53)"/>
</mask>
<g mask="url(#mask0_25_53)">
<circle cx="210.311" cy="300.702" r="210.329" fill="url(#paint3_radial_25_53)"/>
<ellipse cx="289.558" cy="131.243" rx="297.55" ry="272.131" fill="url(#paint4_radial_25_53)"/>
<ellipse cx="444.866" cy="555.387" rx="327.027" ry="265.157" fill="url(#paint5_radial_25_53)"/>
</g>
<mask id="mask1_25_53" style="mask-type:alpha" maskUnits="userSpaceOnUse" x="427" y="105" width="528" height="528">
<path d="M954.188 105.724H427.188V107.155L427.514 106.829L690.788 370.102L428.166 632.724H954.188V105.724Z" fill="#59FFFF"/>
</mask>
<g mask="url(#mask1_25_53)">
<rect x="410.616" y="369.833" width="251.634" height="251.634" transform="rotate(-45 410.616 369.833)" fill="url(#paint6_linear_25_53)"/>
</g>
<rect x="109" y="529.765" width="359.067" height="57.4507" transform="rotate(-45 109 529.765)" fill="#222222"/>
<rect x="538.441" y="417.799" width="143.272" height="57.4507" transform="rotate(-135 538.441 417.799)" fill="#222222"/>
<rect x="337.698" y="414.693" width="196.33" height="57.4507" transform="rotate(-45 337.698 414.693)" fill="#222222"/>
<mask id="mask2_25_53" style="mask-type:alpha" maskUnits="userSpaceOnUse" x="337" y="275" width="243" height="181">
<path d="M538.441 417.799L437.132 316.491L477.756 275.867L579.065 377.176L538.441 417.799Z" fill="#222222"/>
<path d="M337.698 414.693L476.524 275.867L517.148 316.491L378.322 455.317L337.698 414.693Z" fill="#222222"/>
</mask>
<g mask="url(#mask2_25_53)">
<path d="M263.675 628.66L370.642 227.255M287.162 634.918L394.129 233.513M310.648 641.177L417.615 239.772M334.135 647.436L441.102 246.031M357.621 653.695L464.588 252.289M381.108 659.953L488.074 258.548M404.594 666.212L511.561 264.807M428.081 672.471L535.047 271.066M451.567 678.729L558.534 277.324M475.054 684.988L582.02 283.583M498.54 691.247L605.507 289.842M275.419 631.789L382.385 230.384M298.905 638.048L405.872 236.643M322.391 644.306L429.358 242.901M345.878 650.565L452.845 249.16M369.364 656.824L476.331 255.419M392.851 663.083L499.818 261.677M416.337 669.341L523.304 267.936M439.824 675.6L546.791 274.195M463.31 681.859L570.277 280.454M486.797 688.117L593.764 286.712M510.283 694.376L617.25 292.971" stroke="url(#paint7_linear_25_53)" stroke-opacity="0.1" stroke-width="5"/>
</g>
<mask id="mask3_25_53" style="mask-type:alpha" maskUnits="userSpaceOnUse" x="109" y="275" width="295" height="296">
<rect x="109" y="529.766" width="359.067" height="57.4507" transform="rotate(-45 109 529.766)" fill="#222222"/>
</mask>
<g mask="url(#mask3_25_53)">
<path d="M88.6538 622.424L195.621 221.019M112.14 628.683L219.107 227.278M135.627 634.942L242.594 233.537M159.113 641.2L266.08 239.795M182.6 647.459L289.567 246.054M206.086 653.718L313.053 252.313M229.573 659.976L336.539 258.571M253.059 666.235L360.026 264.83M276.546 672.494L383.512 271.089M300.032 678.753L406.999 277.347M323.519 685.011L430.485 283.606M100.397 625.554L207.364 224.149M123.884 631.812L230.85 230.407M147.37 638.071L254.337 236.666M170.856 644.33L277.823 242.925M194.343 650.588L301.31 249.183M217.829 656.847L324.796 255.442M241.316 663.106L348.283 261.701M264.802 669.365L371.769 267.959M288.289 675.623L395.256 274.218M311.775 681.882L418.742 280.477M335.262 688.141L442.229 286.736" stroke="url(#paint8_linear_25_53)" stroke-opacity="0.1" stroke-width="5"/>
</g>
<rect x="1988" y="281.872" width="71.9438" height="71.9438" transform="rotate(-45 1988 281.872)" fill="url(#paint9_linear_25_53)"/>
<mask id="mask4_25_53" style="mask-type:alpha" maskUnits="userSpaceOnUse" x="1988" y="231" width="102" height="102">
<rect x="1988" y="281.872" width="71.9438" height="71.9438" transform="rotate(-45 1988 281.872)" fill="url(#paint10_linear_25_53)"/>
</mask>
<g mask="url(#mask4_25_53)">
<circle cx="2058.5" cy="297.5" r="54.5" fill="url(#paint11_radial_25_53)"/>
</g>
</g>
<defs>
<linearGradient id="paint0_linear_25_53" x1="1540.5" y1="246.222" x2="944.795" y2="401.204" gradientUnits="userSpaceOnUse">
<stop stop-color="white" stop-opacity="0.9"/>
<stop offset="1" stop-color="white" stop-opacity="0"/>
</linearGradient>
<linearGradient id="paint1_linear_25_53" x1="170.888" y1="431.596" x2="499.351" y2="636.709" gradientUnits="userSpaceOnUse">
<stop stop-color="#80CECE"/>
<stop offset="1" stop-color="#01ABA9"/>
</linearGradient>
<linearGradient id="paint2_linear_25_53" x1="170.888" y1="431.596" x2="499.351" y2="636.709" gradientUnits="userSpaceOnUse">
<stop stop-color="#80CECE"/>
<stop offset="1" stop-color="#01ABA9"/>
</linearGradient>
<radialGradient id="paint3_radial_25_53" cx="0" cy="0" r="1" gradientUnits="userSpaceOnUse" gradientTransform="translate(159.435 290.775) rotate(41.4173) scale(245.723)">
<stop stop-color="#67FFFF"/>
<stop offset="1" stop-color="#12C4C4" stop-opacity="0"/>
</radialGradient>
<radialGradient id="paint4_radial_25_53" cx="0" cy="0" r="1" gradientUnits="userSpaceOnUse" gradientTransform="translate(319.877 148.654) rotate(117.945) scale(236.998 241.891)">
<stop stop-color="#67FFE4"/>
<stop offset="1" stop-color="#12C4C4" stop-opacity="0"/>
</radialGradient>
<radialGradient id="paint5_radial_25_53" cx="0" cy="0" r="1" gradientUnits="userSpaceOnUse" gradientTransform="translate(478.188 572.352) rotate(-144.523) scale(159.63 173.405)">
<stop stop-color="#00A469"/>
<stop offset="1" stop-color="#12C4C4" stop-opacity="0"/>
</radialGradient>
<linearGradient id="paint6_linear_25_53" x1="583.698" y1="593.614" x2="662.602" y2="593.614" gradientUnits="userSpaceOnUse">
<stop stop-color="#2DA3A3"/>
<stop offset="1" stop-color="#007675"/>
</linearGradient>
<linearGradient id="paint7_linear_25_53" x1="569.711" y1="478.602" x2="458.124" y2="321.717" gradientUnits="userSpaceOnUse">
<stop stop-color="white"/>
<stop offset="1" stop-color="white" stop-opacity="0"/>
</linearGradient>
<linearGradient id="paint8_linear_25_53" x1="336.596" y1="283.05" x2="177.501" y2="526.662" gradientUnits="userSpaceOnUse">
<stop stop-color="white"/>
<stop offset="1" stop-color="white" stop-opacity="0"/>
</linearGradient>
<linearGradient id="paint9_linear_25_53" x1="2007" y1="301.054" x2="2059.68" y2="366.462" gradientUnits="userSpaceOnUse">
<stop stop-color="#62EBEB"/>
<stop offset="1" stop-color="#007675"/>
</linearGradient>
<linearGradient id="paint10_linear_25_53" x1="1993.92" y1="321.207" x2="2066.75" y2="354.441" gradientUnits="userSpaceOnUse">
<stop stop-color="#62EBEB"/>
<stop offset="1" stop-color="#007675"/>
</linearGradient>
<radialGradient id="paint11_radial_25_53" cx="0" cy="0" r="1" gradientUnits="userSpaceOnUse" gradientTransform="translate(2072.68 311.685) rotate(148.496) scale(54.2899 66.4136)">
<stop stop-color="#00FF75"/>
<stop offset="1" stop-color="#00BFB4" stop-opacity="0"/>
</radialGradient>
<clipPath id="clip0_25_53">
<rect width="2200" height="800" fill="white"/>
</clipPath>
</defs>
</svg>
